HIERARCHY
ROOT Hips
{
  OFFSET 5.84602e-005 68.8428 3.50346
  CHANNELS 6 Xposition Yposition Zposition Zrotation Xrotation Yrotation
  JOINT Spine
  {
    OFFSET 0 8.597 -4.6522
    CHANNELS 3 Zrotation Xrotation Yrotation
    JOINT Spine1
    {
      OFFSET 0 7.8454 0.4098
      CHANNELS 3 Zrotation Xrotation Yrotation
      JOINT Spine2
      {
        OFFSET 0 9.7078 -2.1609
        CHANNELS 3 Zrotation Xrotation Yrotation
        JOINT Neck
        {
          OFFSET 0 21.8761 -0.4549
          CHANNELS 3 Zrotation Xrotation Yrotation
          JOINT Head
          {
            OFFSET 0 12.3537 3.3602
            CHANNELS 3 Zrotation Xrotation Yrotation
            End Site
            {
              OFFSET 0.0001 18.9506 0.5657
            }
          }
        }
        JOINT LeftShoulder
        {
          OFFSET 2.2086 21.1115 7.2329
          CHANNELS 3 Zrotation Xrotation Yrotation
          JOINT LeftArm
          {
            OFFSET 13.1193 3.0282 -4.8998
            CHANNELS 3 Zrotation Xrotation Yrotation
            JOINT LeftForeArm
            {
              OFFSET 27.4081 -0.0973053 -0.2375
              CHANNELS 3 Zrotation Xrotation Yrotation
              JOINT LeftHand
              {
                OFFSET 22.8641 0.0662994 -0.1369
                CHANNELS 3 Zrotation Xrotation Yrotation
                JOINT LeftHandIndex1
                {
                  OFFSET 8.8614 0.775009 2.4612
                  CHANNELS 3 Zrotation Xrotation Yrotation
                  JOINT LeftHandIndex2
                  {
                    OFFSET 3.3146 -0.808304 0.5841
                    CHANNELS 3 Zrotation Xrotation Yrotation
                    JOINT LeftHandIndex3
                    {
                      OFFSET 2.2628 -0.552002 0.3989
                      CHANNELS 3 Zrotation Xrotation Yrotation
                      End Site
                      {
                        OFFSET 1.6102 -0.4807 0.2612
                      }
                    }
                  }
                }
                JOINT LeftHandMiddle1
                {
                  OFFSET 8.9937 0.895004 0.2143
                  CHANNELS 3 Zrotation Xrotation Yrotation
                  JOINT LeftHandMiddle2
                  {
                    OFFSET 4.0984 0.0113983 -0.0242
                    CHANNELS 3 Zrotation Xrotation Yrotation
                    JOINT LeftHandMiddle3
                    {
                      OFFSET 2.2716 0.00689697 -0.0138001
                      CHANNELS 3 Zrotation Xrotation Yrotation
                      End Site
                      {
                        OFFSET 2.0404 -0.1441 0.0027
                      }
                    }
                  }
                }
                JOINT LeftHandRing1
                {
                  OFFSET 8.5234 0.597198 -2.0164
                  CHANNELS 3 Zrotation Xrotation Yrotation
                  JOINT LeftHandRing2
                  {
                    OFFSET 3.7188 -0.188293 -0.2328
                    CHANNELS 3 Zrotation Xrotation Yrotation
                    JOINT LeftHandRing3
                    {
                      OFFSET 2.1191 -0.106598 -0.1332
                      CHANNELS 3 Zrotation Xrotation Yrotation
                      End Site
                      {
                        OFFSET 1.8737 -0.2304 -0.0886
                      }
                    }
                  }
                }
                JOINT LeftHandPinky1
                {
                  OFFSET 7.9094 -0.601089 -3.4825
                  CHANNELS 3 Zrotation Xrotation Yrotation
                  JOINT LeftHandPinky2
                  {
                    OFFSET 2.2874 -0.477005 -0.6314
                    CHANNELS 3 Zrotation Xrotation Yrotation
                    JOINT LeftHandPinky3
                    {
                      OFFSET 1.6774 -0.349396 -0.4633
                      CHANNELS 3 Zrotation Xrotation Yrotation
                      End Site
                      {
                        OFFSET 1.4888 -0.4091 -0.3416
                      }
                    }
                  }
                }
                JOINT LeftHandThumb1
                {
                  OFFSET 1.833 -1.3875 1.3896
                  CHANNELS 3 Zrotation Xrotation Yrotation
                  JOINT LeftHandThumb2
                  {
                    OFFSET 3.4129 -1.121 2.5732
                    CHANNELS 3 Zrotation Xrotation Yrotation
                    JOINT LeftHandThumb3
                    {
                      OFFSET 2.2474 -0.804199 1.6192
                      CHANNELS 3 Zrotation Xrotation Yrotation
                      End Site
                      {
                        OFFSET 1.6527 -0.5689 1.1317
                      }
                    }
                  }
                }
              }
            }
          }
        }
        JOINT RightShoulder
        {
          OFFSET -2.2086 21.1115 7.2329
          CHANNELS 3 Zrotation Xrotation Yrotation
          JOINT RightArm
          {
            OFFSET -13.1216 3.0287 -4.9007
            CHANNELS 3 Zrotation Xrotation Yrotation
            JOINT RightForeArm
            {
              OFFSET -27.4081 -0.0973053 -0.2375
              CHANNELS 3 Zrotation Xrotation Yrotation
              JOINT RightHand
              {
                OFFSET -22.8641 0.0664063 -0.1369
                CHANNELS 3 Zrotation Xrotation Yrotation
                JOINT RightHandIndex1
                {
                  OFFSET -8.8614 0.774994 2.4612
                  CHANNELS 3 Zrotation Xrotation Yrotation
                  JOINT RightHandIndex2
                  {
                    OFFSET -3.3146 -0.808304 0.5841
                    CHANNELS 3 Zrotation Xrotation Yrotation
                    JOINT RightHandIndex3
                    {
                      OFFSET -2.2628 -0.552002 0.3989
                      CHANNELS 3 Zrotation Xrotation Yrotation
                      End Site
                      {
                        OFFSET -1.6102 -0.4807 0.2612
                      }
                    }
                  }
                }
                JOINT RightHandMiddle1
                {
                  OFFSET -8.9937 0.894989 0.2143
                  CHANNELS 3 Zrotation Xrotation Yrotation
                  JOINT RightHandMiddle2
                  {
                    OFFSET -4.0984 0.0113983 -0.0242
                    CHANNELS 3 Zrotation Xrotation Yrotation
                    JOINT RightHandMiddle3
                    {
                      OFFSET -2.2716 0.00691223 -0.0138001
                      CHANNELS 3 Zrotation Xrotation Yrotation
                      End Site
                      {
                        OFFSET -2.0404 -0.1441 0.0027
                      }
                    }
                  }
                }
                JOINT RightHandRing1
                {
                  OFFSET -8.5234 0.597198 -2.0164
                  CHANNELS 3 Zrotation Xrotation Yrotation
                  JOINT RightHandRing2
                  {
                    OFFSET -3.7188 -0.188309 -0.2328
                    CHANNELS 3 Zrotation Xrotation Yrotation
                    JOINT RightHandRing3
                    {
                      OFFSET -2.1191 -0.106598 -0.1332
                      CHANNELS 3 Zrotation Xrotation Yrotation
                      End Site
                      {
                        OFFSET -1.8737 -0.2304 -0.0886
                      }
                    }
                  }
                }
                JOINT RightHandPinky1
                {
                  OFFSET -7.9094 -0.601105 -3.4825
                  CHANNELS 3 Zrotation Xrotation Yrotation
                  JOINT RightHandPinky2
                  {
                    OFFSET -2.2874 -0.477005 -0.6314
                    CHANNELS 3 Zrotation Xrotation Yrotation
                    JOINT RightHandPinky3
                    {
                      OFFSET -1.6774 -0.349396 -0.4633
                      CHANNELS 3 Zrotation Xrotation Yrotation
                      End Site
                      {
                        OFFSET -1.4888 -0.4091 -0.3416
                      }
                    }
                  }
                }
                JOINT RightHandThumb1
                {
                  OFFSET -1.833 -1.38751 1.3896
                  CHANNELS 3 Zrotation Xrotation Yrotation
                  JOINT RightHandThumb2
                  {
                    OFFSET -3.41299 -1.12099 2.5732
                    CHANNELS 3 Zrotation Xrotation Yrotation
                    JOINT RightHandThumb3
                    {
                      OFFSET -2.24741 -0.804108 1.6192
                      CHANNELS 3 Zrotation Xrotation Yrotation
                      End Site
                      {
                        OFFSET -1.6527 -0.5689 1.1317
                      }
                    }
                  }
                }
              }
            }
          }
        }
      }
    }
  }
  JOINT RightUpLeg
  {
    OFFSET -9.1966 3.8861 -0.7581
    CHANNELS 3 Zrotation Xrotation Yrotation
    JOINT RightLeg
    {
      OFFSET -0.7359 -41.0265 0
      CHANNELS 3 Zrotation Xrotation Yrotation
      JOINT RightFoot
      {
        OFFSET 0 -40.2855 0
        CHANNELS 3 Zrotation Xrotation Yrotation
        JOINT RightToeBase
        {
          OFFSET 0 -5.6122 11.7359
          CHANNELS 3 Zrotation Xrotation Yrotation
          End Site
          {
            OFFSET 0 0 7.8731
          }
        }
      }
    }
  }
  JOINT LeftUpLeg
  {
    OFFSET 9.1965 3.8864 -0.7581
    CHANNELS 3 Zrotation Xrotation Yrotation
    JOINT LeftLeg
    {
      OFFSET 0.7359 -41.0268 0
      CHANNELS 3 Zrotation Xrotation Yrotation
      JOINT LeftFoot
      {
        OFFSET 0 -40.2855 0
        CHANNELS 3 Zrotation Xrotation Yrotation
        JOINT LeftToeBase
        {
          OFFSET 0 -5.6122 11.7359
          CHANNELS 3 Zrotation Xrotation Yrotation
          End Site
          {
            OFFSET 0 0 7.8731
          }
        }
      }
    }
  }
}
MOTION
Frames:	6
Frame Time:	0.0333333
5.84602e-005 68.8428 3.50346 0 0 -0 0 0 -0 0 0 -0 0 0 -0 0 0 -0 0 0 -0 0 0 -0 0 0 -0 0 0 -0 0 0 -0 0 0 -0 0 0 -0 0 0 -0 0 0 -0 -0.0146107 -8.87603e-005 -2.63497e-007 2.99804e-018 -2.42657e-020 -1.42182e-022 0 0 -0 -0.0187562 -0.001176 5.858e-005 5.06224e-018 3.88251e-019 1.21329e-020 0 0 -0 -0.012269 -0.00324817 0.000675346 -1.74678e-018 3.88251e-019 -0 0 0 -0 0 0 -0 0 0 -0 0 0 -0 0 0 -0 0 0 -0 0 0 -0 0 0 -0 0 0 -0 0 0 -0 0 0 -0 0.0149955 -9.10982e-005 2.64101e-007 -9.69331e-018 1.21329e-020 -4.7394e-023 0 0 -0 0.0189956 -0.00119102 -5.96516e-005 -5.41541e-019 0 2.42657e-020 0 0 -0 0.0122698 -0.00324857 -0.000673756 -2.00796e-019 0 -1.94126e-019 0 0 -0 0 0 -0 0 0 -0 3.39842 1.33031 -0.0637918 -5.65207e-008 0.834868 -0.000436188 -3.39935 -2.16518 -0.0642563 -8.89002e-024 -1.18485e-023 -1.48106e-024 -3.39844 1.35642 0.0640283 -3.18788e-007 0.782166 -0.000588827 3.39931 -2.13858 0.0634662 1.1399e-023 0 -0 
8.6993 31.7377 -7.19344 84.9956 1.22124e-006 -9.46633e-007 -1.92279 3.23758 -0.605058 -3.82042 6.4935 -1.10343 -3.82042 6.4935 -1.10343 36.3271 23.1846 -13.1436 -0.212875 -1.4508 30.9918 -20.9883 -0.720511 1.8637 -52.2714 14.222 -42.5962 16.3752 -4.62194 -105.338 6.96798 -1.71589 -31.0189 -7.95e-008 1.67123e-007 5.30916e-008 -1.09332e-015 3.97569e-016 1.59028e-015 -5.96354e-016 0 -0 -7.95e-008 1.67123e-007 5.30916e-008 -0.0146383 -8.87201e-005 -2.72201e-006 -2.98177e-016 0 -0 -7.95e-008 1.67123e-007 5.30916e-008 -0.0187722 -0.00117679 5.68817e-005 2.98177e-016 -3.97569e-016 -0 -7.95e-008 1.67123e-007 5.30916e-008 -0.0122105 -0.00323232 0.000671846 -6.95746e-016 -3.97569e-016 1.59028e-015 -7.95e-008 1.67123e-007 5.30916e-008 -1.09332e-015 3.97569e-016 1.59028e-015 -5.96354e-016 0 -0 22.5851 4.46763 11.0648 67.9971 -4.00132 0.000686087 0.433939 -4.98302 5.01735 6.63416 -2.93451 12.2132 1.963e-015 0 -4.96962e-016 -3.3477e-009 6.44344e-009 -1.0647e-007 -5.65294e-016 0 -1.98785e-016 1.963e-015 0 -4.96962e-016 0.014996 -9.0898e-005 1.70486e-007 1.41634e-015 0 3.97569e-016 1.963e-015 0 -4.96962e-016 0.0189939 -0.00119022 -5.95491e-005 1.36664e-016 2.38542e-015 -0 1.963e-015 0 -4.96962e-016 0.0122507 -0.00324286 -0.000675219 1.758e-015 -1.59028e-015 -0 1.963e-015 0 -4.96962e-016 -3.3477e-009 6.44344e-009 -1.0647e-007 -5.65294e-016 0 -1.98785e-016 5.67174 -3.85569 4.76705 0.526002 19.109 -0.909601 -2.32076 15.1265 0.803333 -2.65661e-007 1.13753e-006 1.19074e-006 0.146505 -30.871 13.179 4.87388 82.347 -10.1497 1.68588 36.2362 0.489697 2.69796e-007 -1.16821e-007 3.79094e-006 
8.6993 31.7377 -7.19344 84.9956 1.22124e-006 -9.46633e-007 -1.92279 3.23758 -0.605058 -3.82042 6.4935 -1.10343 -3.82042 6.4935 -1.10343 36.3271 23.1846 -13.1435 -0.212898 -1.4508 30.9918 -20.9883 -0.72051 1.8637 -52.2714 14.222 -42.5962 16.3752 -4.62194 -105.338 6.96798 -1.71589 -31.0189 -4.23023e-007 5.42864e-008 8.34502e-009 4.23023e-007 -5.42864e-008 -8.34503e-009 -4.23023e-007 5.42864e-008 8.34502e-009 -4.23023e-007 5.42864e-008 8.34502e-009 -0.0146391 -8.88255e-005 -2.71446e-006 -4.23021e-007 5.42854e-008 8.35229e-009 -4.23023e-007 5.42864e-008 8.34502e-009 -0.0187731 -0.00117704 5.51884e-005 -4.2302e-007 5.42855e-008 8.35826e-009 -4.23023e-007 5.42864e-008 8.34502e-009 -0.0122979 -0.00325533 0.000679873 -4.2302e-007 5.42886e-008 8.36277e-009 -4.23023e-007 5.42864e-008 8.34502e-009 4.23023e-007 -5.42864e-008 -8.34503e-009 -4.23023e-007 5.42864e-008 8.34502e-009 22.5851 4.46763 11.0648 67.9971 -4.00132 0.000684666 0.433935 -4.98302 5.01735 6.63416 -2.93451 12.2132 -2.37051e-014 7.95139e-016 1.49089e-015 -2.28851e-014 7.95139e-016 1.78906e-015 -2.28727e-014 1.59028e-015 1.49089e-015 -2.37051e-014 7.95139e-016 1.49089e-015 0.0150092 -9.06171e-005 1.86744e-007 6.21202e-017 1.59028e-015 9.93923e-017 -2.37051e-014 7.95139e-016 1.49089e-015 0.0189944 -0.00119063 -5.99078e-005 6.58474e-016 0 -0 -2.37051e-014 7.95139e-016 1.49089e-015 0.0122754 -0.00324971 -0.000676032 1.8077e-015 -7.95139e-016 -9.93923e-017 -2.37051e-014 7.95139e-016 1.49089e-015 -2.28851e-014 7.95139e-016 1.78906e-015 -2.28727e-014 1.59028e-015 1.49089e-015 5.67174 -3.8557 4.76706 0.525998 19.1091 -0.909601 -2.32078 15.1265 0.803338 -8.96415e-007 1.08432e-006 3.51902e-006 0.146461 -30.871 13.179 4.87388 82.3471 -10.1497 1.6859 36.2362 0.489711 2.69794e-007 -1.16822e-007 3.79094e-006 
8.6993 31.7377 -7.19344 84.9956 1.22124e-006 -9.46633e-007 -1.92279 3.23758 -0.605058 -3.82042 6.4935 -1.10343 -3.82042 6.4935 -1.10343 36.3271 23.1846 -13.1436 -0.212877 -1.45079 30.9918 -20.9883 -0.720511 1.8637 -52.2714 14.222 -42.5962 16.3752 -4.62194 -105.338 6.96798 -1.71589 -31.0189 -7.95011e-008 1.67124e-007 5.3091e-008 -4.23023e-007 5.42865e-008 8.34504e-009 4.96962e-016 -1.19271e-015 -0 -7.95011e-008 1.67124e-007 5.3091e-008 -0.0146396 -8.90466e-005 -1.02164e-006 9.93923e-017 1.59028e-015 -4.77083e-015 -7.95011e-008 1.67124e-007 5.3091e-008 -0.0187722 -0.00117679 5.68811e-005 -4.96962e-016 -3.97569e-016 -3.18055e-015 -7.95011e-008 1.67124e-007 5.3091e-008 -0.0122942 -0.00325445 0.000679811 -8.09768e-008 1.66727e-007 5.3193e-008 -7.95011e-008 1.67124e-007 5.3091e-008 -4.23023e-007 5.42865e-008 8.34504e-009 4.96962e-016 -1.19271e-015 -0 22.5851 4.46763 11.0648 67.9971 -4.00132 0.000686087 0.433939 -4.98302 5.01735 6.63416 -2.93451 12.2132 4.53478e-016 -1.59028e-015 9.93923e-017 4.96962e-016 -2.38542e-015 9.93923e-017 1.3418e-015 -1.59028e-015 -0 4.53478e-016 -1.59028e-015 9.93923e-017 0.014996 -9.0898e-005 1.70486e-007 -7.70291e-016 -1.59028e-015 3.97569e-016 4.53478e-016 -1.59028e-015 9.93923e-017 0.0189939 -0.00119022 -5.95491e-005 1.92573e-016 -7.95139e-016 9.93923e-017 4.53478e-016 -1.59028e-015 9.93923e-017 0.0122507 -0.00324286 -0.000675219 2.15557e-015 0 -0 4.53478e-016 -1.59028e-015 9.93923e-017 4.96962e-016 -2.38542e-015 9.93923e-017 1.3418e-015 -1.59028e-015 -0 5.67172 -3.8557 4.76705 0.526002 19.1091 -0.909595 -2.32075 15.1265 0.803332 -1.26151e-006 -1.06428e-007 4.65655e-006 0.146497 -30.8711 13.179 4.87392 82.347 -10.1497 1.68591 36.2362 0.489702 -1.76057e-006 1.43055e-006 2.03037e-006 
8.6993 31.7377 -7.19344 84.9956 1.22124e-006 -9.46633e-007 -1.92279 3.23758 -0.605058 -3.82042 6.4935 -1.10343 -3.82042 6.4935 -1.10343 36.3271 23.1846 -13.1436 -0.212875 -1.4508 30.9918 -20.9883 -0.720511 1.8637 -52.2714 14.222 -42.5962 16.3752 -4.62194 -105.338 6.96798 -1.71589 -31.0189 -7.95e-008 1.67123e-007 5.30916e-008 -1.09332e-015 3.97569e-016 1.59028e-015 -5.96354e-016 0 -0 -7.95e-008 1.67123e-007 5.30916e-008 -0.0146383 -8.87201e-005 -2.72201e-006 -2.98177e-016 0 -0 -7.95e-008 1.67123e-007 5.30916e-008 -0.0187722 -0.00117679 5.68817e-005 2.98177e-016 -3.97569e-016 -0 -7.95e-008 1.67123e-007 5.30916e-008 -0.0122105 -0.00323232 0.000671846 -6.95746e-016 -3.97569e-016 1.59028e-015 -7.95e-008 1.67123e-007 5.30916e-008 -1.09332e-015 3.97569e-016 1.59028e-015 -5.96354e-016 0 -0 22.5851 4.46763 11.0648 67.9971 -4.00132 0.000686087 0.433939 -4.98302 5.01735 6.63416 -2.93451 12.2132 1.963e-015 0 -4.96962e-016 -3.3477e-009 6.44344e-009 -1.0647e-007 -5.65294e-016 0 -1.98785e-016 1.963e-015 0 -4.96962e-016 0.014996 -9.0898e-005 1.70486e-007 1.41634e-015 0 3.97569e-016 1.963e-015 0 -4.96962e-016 0.0189939 -0.00119022 -5.95491e-005 1.36664e-016 2.38542e-015 -0 1.963e-015 0 -4.96962e-016 0.0122507 -0.00324286 -0.000675219 1.758e-015 -1.59028e-015 -0 1.963e-015 0 -4.96962e-016 -3.3477e-009 6.44344e-009 -1.0647e-007 -5.65294e-016 0 -1.98785e-016 5.67174 -3.85569 4.76705 0.526002 19.109 -0.909601 -2.32076 15.1265 0.803333 -2.65661e-007 1.13753e-006 1.19074e-006 0.146505 -30.871 13.179 4.87388 82.347 -10.1497 1.68588 36.2362 0.489697 2.69796e-007 -1.16821e-007 3.79094e-006 
8.6993 31.7377 -7.19344 84.9956 1.22124e-006 -9.46633e-007 -1.92279 3.23758 -0.605058 -3.82042 6.4935 -1.10343 -3.82042 6.4935 -1.10343 36.3271 23.1846 -13.1435 -0.212882 -1.4508 30.9918 -20.9883 -0.720511 1.8637 -52.2714 14.222 -42.5962 16.3752 -4.62194 -105.338 6.96799 -1.71589 -31.0189 4.50166e-007 1.57225e-007 -1.66448e-010 -8.79425e-007 1.74002e-007 -1.6754e-006 4.50166e-007 1.57225e-007 -1.66438e-010 4.50166e-007 1.57225e-007 -1.66448e-010 -0.0146387 -8.88775e-005 -2.7225e-006 4.50163e-007 1.57225e-007 -1.46701e-010 4.50166e-007 1.57225e-007 -1.66448e-010 -0.0187687 -0.00117638 5.68468e-005 4.50163e-007 1.57224e-007 -1.45297e-010 4.50166e-007 1.57225e-007 -1.66448e-010 -0.0122931 -0.00325463 0.000674702 4.50165e-007 1.57222e-007 -1.62232e-010 4.50166e-007 1.57225e-007 -1.66448e-010 -8.79425e-007 1.74002e-007 -1.6754e-006 4.50166e-007 1.57225e-007 -1.66438e-010 22.5851 4.46763 11.0648 67.9971 -4.00132 0.000682031 0.433938 -4.98302 5.01735 6.63416 -2.93451 12.2132 1.49089e-016 7.95139e-016 -1.98785e-016 9.38015e-016 0 -1.98785e-016 1.55301e-016 0 -9.93923e-017 1.49089e-016 7.95139e-016 -1.98785e-016 0.015008 -9.06154e-005 3.52817e-007 1.37907e-015 0 1.98785e-016 1.49089e-016 7.95139e-016 -1.98785e-016 0.018994 -0.00119023 -5.93371e-005 1.04983e-015 0 -1.98785e-016 1.49089e-016 7.95139e-016 -1.98785e-016 0.0122728 -0.00324855 -0.000677208 -2.44132e-015 0 2.98177e-016 1.49089e-016 7.95139e-016 -1.98785e-016 9.38015e-016 0 -1.98785e-016 1.55301e-016 0 -9.93923e-017 5.67174 -3.85569 4.76705 0.526002 19.109 -0.909601 -2.32076 15.1265 0.803333 -2.65661e-007 1.13753e-006 1.19074e-006 0.146479 -30.871 13.179 4.87385 82.347 -10.1496 1.68589 36.2362 0.489722 -1.44831e-032 3.97569e-016 2.08724e-015 
